<svg width="24" height="25" viewBox="0 0 24 25" fill="none" xmlns="http://www.w3.org/2000/svg">
<g clip-path="url(#clip0_42_37)">
<path d="M6.62 11.7754C8.06 14.6054 10.38 16.9154 13.21 18.3654L15.41 16.1654C15.68 15.8954 16.08 15.8054 16.43 15.9254C17.55 16.2954 18.76 16.4954 20 16.4954C20.55 16.4954 21 16.9454 21 17.4954V20.9854C21 21.5354 20.55 21.9854 20 21.9854C10.61 21.9854 3 14.3754 3 4.98535C3 4.43535 3.45 3.98535 4 3.98535H7.5C8.05 3.98535 8.5 4.43535 8.5 4.98535C8.5 6.23535 8.7 7.43535 9.07 8.55535C9.18 8.90535 9.1 9.29535 8.82 9.57535L6.62 11.7754Z" fill="#7C7C8A"/>
</g>
<defs>
<clipPath id="clip0_42_37">
<rect width="24" height="24" fill="white" transform="translate(0 0.985352)"/>
</clipPath>
</defs>
</svg>
